<?xml version="1.0" encoding="UTF-8"?>
<!DOCTYPE svg PUBLIC "-//W3C//DTD SVG 1.1//EN" "http://www.w3.org/Graphics/SVG/1.1/DTD/svg11.dtd">
<!-- Creator: CorelDRAW X6 -->
<svg xmlns="http://www.w3.org/2000/svg" xml:space="preserve" width="6.2cm" height="4.2cm" version="1.1" style="shape-rendering:geometricPrecision; text-rendering:geometricPrecision; image-rendering:optimizeQuality; fill-rule:evenodd; clip-rule:evenodd" viewBox="0 0 6200 4200" xmlns:xlink="http://www.w3.org/1999/xlink">
 <defs>
  <style type="text/css">
   <![CDATA[
    .fil0 {fill:#E7E7E7}
   ]]>
  </style>
 </defs>
 <g id="Слой_x0020_1">
  <metadata id="CorelCorpID_0Corel-Layer"/>
  <path class="fil0" d="M2109 882l0 1675c-103,-38 -262,-314 -329,-404l-629 -863c-47,-69 -263,-408 -351,-408l-680 0 0 2c1,901 26,1813 26,2719l680 0 0 -1701c96,64 1098,1447 1218,1609 36,49 46,92 117,92l628 0 0 -2721c-242,0 -434,-6 -680,0zm1701 1779l-210 0 0 -732c335,0 655,-52 655,392 0,265 -187,340 -445,340zm-864 1440l654 0 0 -1073c103,27 51,12 185,233 56,93 105,176 167,279 117,195 225,364 329,561l811 0c-80,-120 -696,-1016 -733,-1126 113,-9 365,-124 447,-234 295,-397 235,-1362 -708,-1362l-1152 0 0 2722zm3193 -4017l-1126 0c-124,236 -241,470 -366,707l680 0c0,827 23,1655 27,2486l785 0 0 -3193z"/>
 </g>
</svg>